HIERARCHY
ROOT Hips
{
	OFFSET 38.925598 -9.782256 100.714996
	CHANNELS 6 Xposition Yposition Zposition Xrotation Yrotation Zrotation
	JOINT spine
	{
		OFFSET 0.000000 -0.507026 8.817039
		CHANNELS 3 Xrotation Yrotation Zrotation
		JOINT spine1
		{
			OFFSET 0.000000 -0.000002 10.776604
			CHANNELS 3 Xrotation Yrotation Zrotation
			JOINT spine2
			{
				OFFSET 0.000000 -0.000001 10.325897
				CHANNELS 3 Xrotation Yrotation Zrotation
				JOINT Neck
				{
					OFFSET 0.000000 -1.263955 26.511002
					CHANNELS 3 Xrotation Yrotation Zrotation
					JOINT Head
					{
						OFFSET 0.000000 -0.000001 8.009659
						CHANNELS 3 Xrotation Yrotation Zrotation
						End Site
						{
							OFFSET 0.000000 6.393857 19.387894
						}
					}
				}
				JOINT RightShoulder
				{
					OFFSET -4.347950 0.605420 11.151199
					CHANNELS 3 Xrotation Yrotation Zrotation
					JOINT RightArm
					{
						OFFSET 0.000000 -0.000003 14.625793
						CHANNELS 3 Xrotation Yrotation Zrotation
						JOINT RightArmRoll
						{
							OFFSET 0.000000 -0.000001 7.383392
							CHANNELS 3 Xrotation Yrotation Zrotation
							JOINT RightForeArm
							{
								OFFSET 0.000000 -0.000004 21.505203
								CHANNELS 3 Xrotation Yrotation Zrotation
								JOINT RightForeArmRoll
								{
									OFFSET 0.000000 -0.000001 8.285324
									CHANNELS 3 Xrotation Yrotation Zrotation
									JOINT RightHand
									{
										OFFSET 0.000000 -0.000003 16.626801
										CHANNELS 3 Xrotation Yrotation Zrotation
										End Site
										{
											OFFSET 0.000000 0.000000 0.100006
										}
									}
								}
							}
						}
					}
				}
				JOINT LeftShoulder
				{
					OFFSET 4.347950 0.605420 11.151199
					CHANNELS 3 Xrotation Yrotation Zrotation
					JOINT LeftArm
					{
						OFFSET 0.000000 -0.000003 14.625793
						CHANNELS 3 Xrotation Yrotation Zrotation
						JOINT LeftArmRoll
						{
							OFFSET 0.000000 -0.000001 7.383392
							CHANNELS 3 Xrotation Yrotation Zrotation
							JOINT LeftForeArm
							{
								OFFSET 0.000000 -0.000004 21.505203
								CHANNELS 3 Xrotation Yrotation Zrotation
								JOINT LeftForeArmRoll
								{
									OFFSET 0.000000 -0.000001 8.285324
									CHANNELS 3 Xrotation Yrotation Zrotation
									JOINT LeftHand
									{
										OFFSET 0.000000 -0.000003 16.626801
										CHANNELS 3 Xrotation Yrotation Zrotation
										End Site
										{
											OFFSET 0.000000 0.000000 0.100006
										}
									}
								}
							}
						}
					}
				}
			}
		}
	}
	JOINT RightUpLeg
	{
		OFFSET -7.815100 1.202170 -1.433090
		CHANNELS 3 Xrotation Yrotation Zrotation
		JOINT RightUpLegRoll
		{
			OFFSET 0.000000 -0.000003 19.495895
			CHANNELS 3 Xrotation Yrotation Zrotation
			JOINT RightLeg
			{
				OFFSET 0.000000 0.000004 -24.142700
				CHANNELS 3 Xrotation Yrotation Zrotation
				JOINT RightLegRoll
				{
					OFFSET 0.000000 -0.000004 24.221703
					CHANNELS 3 Xrotation Yrotation Zrotation
					JOINT RightFoot
					{
						OFFSET 0.000000 -0.000004 20.160500
						CHANNELS 3 Xrotation Yrotation Zrotation
						JOINT RightToeBase
						{
							OFFSET 0.000000 -0.000003 16.853195
							CHANNELS 3 Xrotation Yrotation Zrotation
							End Site
							{
								OFFSET 0.007143 0.940780 8.161865
							}
						}
					}
				}
			}
		}
	}
	JOINT LeftUpLeg
	{
		OFFSET 7.815102 1.202170 -1.433090
		CHANNELS 3 Xrotation Yrotation Zrotation
		JOINT LeftUpLegRoll
		{
			OFFSET 0.000000 -0.000003 19.496002
			CHANNELS 3 Xrotation Yrotation Zrotation
			JOINT LeftLeg
			{
				OFFSET 0.000000 -0.000004 24.142593
				CHANNELS 3 Xrotation Yrotation Zrotation
				JOINT LeftLegRoll
				{
					OFFSET 0.000000 -0.000005 24.445602
					CHANNELS 3 Xrotation Yrotation Zrotation
					JOINT LeftFoot
					{
						OFFSET 0.000000 -0.000003 19.936600
						CHANNELS 3 Xrotation Yrotation Zrotation
						JOINT LeftToeBase
						{
							OFFSET 0.000000 -0.000003 16.853195
							CHANNELS 3 Xrotation Yrotation Zrotation
							End Site
							{
								OFFSET -0.032013 0.940779 8.161865
							}
						}
					}
				}
			}
		}
	}
}
MOTION
Frames: 8
Frame Time: 0.041667
53.343800 -10.710118 99.959305 -4.725329 -0.529185 18.536358 -0.660501 -0.169368 0.418680 2.683561 -0.316795 0.836908 4.328573 -0.306874 0.840910 18.031003 4.204918 8.905413 -8.377430 7.729410 8.702991 10.418830 -44.420767 14.944847 142.595130 -11.661979 78.868461 -0.000002 0.000002 -0.000001 69.511668 -14.674311 10.086185 -0.000000 -0.000002 -3.001049 -4.999824 -7.998700 -0.000094 -18.966134 60.045730 22.422295 66.116593 68.016806 -47.352428 -0.000000 -0.000001 -0.000000 41.166107 23.545600 -9.598645 0.000003 -0.000011 3.000001 -4.999695 7.999734 0.000315 -5.242257 -174.329664 1.927715 -179.999991 0.000005 -1.348998 154.813409 -0.213566 -0.935446 -0.000001 -0.000001 0.748210 73.619638 6.680662 2.410394 27.713593 -7.238161 3.235094 -3.580130 174.178293 0.565792 -0.000004 -0.000003 -0.973333 -14.975137 2.670066 0.945273 -0.000002 0.000003 -0.134840 72.027787 -6.051319 -4.265900 25.456943 7.350614 -0.000008 
53.314800 -10.719015 99.951599 -4.712693 -0.547512 18.598764 -0.664075 -0.170395 0.416402 2.677022 -0.320197 0.832348 4.322034 -0.310321 0.836369 18.035832 4.188961 8.933500 -8.410908 7.817443 8.729271 10.448408 -44.547119 14.954105 142.554272 -11.788335 78.960361 -0.000001 -0.000001 -0.000001 69.494006 -14.651924 10.063351 -0.000000 -0.000003 -3.001051 -4.999825 -7.998694 -0.000096 -18.994910 60.016128 22.456187 66.022651 68.049550 -47.177793 -0.000000 0.000002 -0.000000 41.533516 23.370723 -9.596593 -0.000000 -0.000011 3.000001 -4.999698 7.999734 0.000315 -5.217630 -174.294598 1.930951 -179.999991 0.000005 -1.348000 154.855237 -0.201866 -0.929765 -0.000002 -0.000001 0.748711 73.642314 6.680481 2.407917 27.700662 -7.239648 3.215857 -3.583906 174.164346 0.561203 -0.000004 -0.000004 -0.972081 -14.945533 2.672530 0.945130 -0.000002 0.000003 -0.132961 72.008813 -6.044378 -4.285725 25.456950 7.350609 -0.000007 
53.276199 -10.710319 99.946701 -4.700330 -0.565751 18.661185 -0.667549 -0.171375 0.414183 2.670733 -0.323558 0.827912 4.315745 -0.313726 0.831951 18.040592 4.169764 8.961646 -8.444942 7.908683 8.755574 10.476598 -44.673003 14.961729 142.516118 -11.911777 79.049987 -0.000002 -0.000001 -0.000002 69.477572 -14.628575 10.040361 -0.000000 0.000001 -3.001051 -4.999825 -7.998701 -0.000094 -19.022231 59.985884 22.488355 65.924392 68.082725 -46.997067 0.000000 0.000002 0.000000 41.903030 23.197819 -9.592960 0.000001 -0.000010 2.999999 -4.999692 7.999734 0.000314 -5.193217 -174.259504 1.934715 -179.999991 0.000006 -1.348000 154.896546 -0.190157 -0.925098 -0.000003 -0.000001 0.749176 73.663993 6.680249 2.405496 27.688129 -7.241102 3.197228 -3.587005 174.151396 0.556521 -0.000005 -0.000004 -0.970863 -14.915228 2.675023 0.944944 -0.000002 0.000003 -0.131114 71.989764 -6.037504 -4.305264 25.456945 7.350610 -0.000005 
53.237206 -10.724318 99.945610 -4.688143 -0.583920 18.723417 -0.670952 -0.172325 0.412010 2.664614 -0.326891 0.823555 4.309626 -0.317101 0.827616 18.045199 4.148306 8.989944 -8.479401 8.002174 8.781935 10.503899 -44.798678 14.968298 142.479904 -12.033863 79.137563 -0.000002 0.000000 -0.000001 69.462068 -14.604509 10.017135 -0.000001 -0.000001 -3.001052 -4.999824 -7.998696 -0.000095 -19.048604 59.955380 22.519414 65.823216 68.116138 -46.812341 -0.000000 0.000001 -0.000001 42.273789 23.026634 -9.587560 0.000001 -0.000011 3.000002 -4.999692 7.999734 0.000317 -5.168939 -174.222430 1.938676 -179.999991 0.000005 -1.347004 154.937473 -0.178454 -0.919457 -0.000002 -0.000001 0.749615 73.684921 6.680031 2.403118 27.676003 -7.242520 3.179036 -3.589632 174.138446 0.551818 -0.000004 -0.000004 -0.969664 -14.884425 2.677561 0.944739 -0.000002 0.000003 -0.129295 71.970564 -6.030758 -4.324428 25.456947 7.350615 -0.000008 
53.198700 -10.731719 99.945496 -4.676076 -0.602040 18.785558 -0.674314 -0.173256 0.409857 2.658585 -0.330207 0.819250 4.303598 -0.320458 0.823326 18.049878 4.125555 9.018164 -8.514107 8.096919 8.808372 10.530729 -44.924101 14.974286 142.444988 -12.155264 79.224027 0.000003 -0.000000 -0.000001 69.447075 -14.580077 9.993958 -0.000001 -0.000003 -3.001051 -4.999824 -7.998695 -0.000094 -19.074393 59.924651 22.549781 65.719985 68.149729 -46.624743 0.000000 -0.000001 -0.000000 42.645092 22.856847 -9.580278 0.000003 -0.000010 3.000001 -4.999695 7.999735 0.000315 -5.144745 -174.186339 1.942960 -179.999991 0.000005 -1.347006 154.978181 -0.166730 -0.914827 -0.000002 -0.000002 0.750040 73.705329 6.679870 2.400578 27.663970 -7.243922 3.161078 -3.591978 174.125469 0.547104 -0.000003 -0.000003 -0.968481 -14.853414 2.680101 0.944519 -0.000001 0.000003 -0.127487 71.951269 -6.024057 -4.343503 25.456947 7.350610 -0.000008 
53.144901 -10.743718 99.951790 -4.664030 -0.620131 18.847707 -0.677663 -0.174183 0.407710 2.652595 -0.333517 0.814952 4.297610 -0.323810 0.819048 18.054451 4.102494 9.046493 -8.548917 8.191967 8.834927 10.557569 -45.049510 14.980277 142.410879 -12.276757 79.310026 0.000001 -0.000001 -0.000000 69.432213 -14.555560 9.970711 0.000001 -0.000004 -3.001049 -4.999824 -7.998699 -0.000096 -19.099955 59.893826 22.579900 65.615626 68.183217 -46.435973 -0.000000 0.000002 0.000000 43.016234 22.688369 -9.571233 -0.000001 -0.000012 3.000002 -4.999696 7.999737 0.000314 -5.120566 -174.149279 1.947236 -179.999991 0.000006 -1.347006 155.018793 -0.154995 -0.910229 -0.000003 -0.000001 0.750464 73.725718 6.679636 2.398131 27.651946 -7.245308 3.143169 -3.594262 174.112532 0.542388 -0.000004 -0.000003 -0.967299 -14.822217 2.682653 0.944285 -0.000001 0.000003 -0.125687 71.932001 -6.017360 -4.362474 25.456945 7.350607 -0.000004 
53.112801 -10.756519 99.954590 -4.651940 -0.638209 18.909970 -0.681037 -0.175117 0.405554 2.646546 -0.336835 0.810634 4.291560 -0.327169 0.814750 18.059042 4.080081 9.074813 -8.583640 8.286339 8.861608 10.584911 -45.175083 14.986818 142.376878 -12.399042 79.396673 0.000001 -0.000001 -0.000000 69.417139 -14.531236 9.947607 -0.000001 -0.000003 -3.001049 -4.999823 -7.998695 -0.000094 -19.125804 59.863159 22.610337 65.511404 68.216487 -46.247679 -0.000000 -0.000000 -0.000001 43.386468 22.520747 -9.560206 0.000002 -0.000011 3.000000 -4.999695 7.999737 0.000316 -5.096360 -174.112204 1.951444 -179.999991 0.000005 -1.346008 155.059610 -0.143268 -0.904642 -0.000002 -0.000001 0.750892 73.746242 6.679459 2.395682 27.639918 -7.246693 3.125152 -3.596679 174.099555 0.537673 -0.000004 -0.000005 -0.966113 -14.791311 2.685201 0.944069 -0.000002 0.000003 -0.123874 71.912815 -6.010615 -4.381532 25.456948 7.350609 -0.000006 
53.094299 -10.760616 99.954094 -4.639713 -0.656294 18.972240 -0.684460 -0.176075 0.403363 2.640377 -0.340172 0.806251 4.285392 -0.330549 0.810388 18.063776 4.059291 9.102999 -8.618143 8.379063 8.888451 10.613199 -45.300779 14.994412 142.342741 -12.522076 79.485384 0.000001 0.000001 0.000002 69.401422 -14.507339 9.924554 -0.000001 -0.000000 -3.001050 -4.999824 -7.998699 -0.000096 -19.152241 59.832710 22.641471 65.408350 68.249409 -46.061484 -0.000000 0.000002 0.000000 43.755090 22.353903 -9.547183 0.000002 -0.000012 3.000000 -4.999696 7.999734 0.000316 -5.072040 -174.076127 1.955522 -179.999991 0.000005 -1.346009 155.100619 -0.131520 -0.900059 -0.000003 -0.000002 0.751339 73.767300 6.679250 2.393298 27.627576 -7.248095 3.106823 -3.599440 174.086605 0.532984 -0.000004 -0.000004 -0.964906 -14.760602 2.687726 0.943855 -0.000002 0.000003 -0.122050 71.893622 -6.003814 -4.400678 25.456945 7.350609 -0.000005 
